<svg xmlns="http://www.w3.org/2000/svg" viewBox="0 0 100 100" preserveAspectRatio="xMidYMid" style="shape-rendering: auto; display: block; background: transparent;" width="200" height="200" xmlns:xlink="http://www.w3.org/1999/xlink"><g><g transform="rotate(0 50 50)">
  <rect x="47" y="24" rx="3" ry="6" width="6" height="12" fill="#f8f8f8">
    <animate attributeName="opacity" values="1;0" keyTimes="0;1" dur="1.4285714285714284s" begin="-1.3095238095238095s" repeatCount="indefinite"></animate>
  </rect>
</g><g transform="rotate(30 50 50)">
  <rect x="47" y="24" rx="3" ry="6" width="6" height="12" fill="#f8f8f8">
    <animate attributeName="opacity" values="1;0" keyTimes="0;1" dur="1.4285714285714284s" begin="-1.1904761904761905s" repeatCount="indefinite"></animate>
  </rect>
</g><g transform="rotate(60 50 50)">
  <rect x="47" y="24" rx="3" ry="6" width="6" height="12" fill="#f8f8f8">
    <animate attributeName="opacity" values="1;0" keyTimes="0;1" dur="1.4285714285714284s" begin="-1.0714285714285714s" repeatCount="indefinite"></animate>
  </rect>
</g><g transform="rotate(90 50 50)">
  <rect x="47" y="24" rx="3" ry="6" width="6" height="12" fill="#f8f8f8">
    <animate attributeName="opacity" values="1;0" keyTimes="0;1" dur="1.4285714285714284s" begin="-0.9523809523809523s" repeatCount="indefinite"></animate>
  </rect>
</g><g transform="rotate(120 50 50)">
  <rect x="47" y="24" rx="3" ry="6" width="6" height="12" fill="#f8f8f8">
    <animate attributeName="opacity" values="1;0" keyTimes="0;1" dur="1.4285714285714284s" begin="-0.8333333333333333s" repeatCount="indefinite"></animate>
  </rect>
</g><g transform="rotate(150 50 50)">
  <rect x="47" y="24" rx="3" ry="6" width="6" height="12" fill="#f8f8f8">
    <animate attributeName="opacity" values="1;0" keyTimes="0;1" dur="1.4285714285714284s" begin="-0.7142857142857143s" repeatCount="indefinite"></animate>
  </rect>
</g><g transform="rotate(180 50 50)">
  <rect x="47" y="24" rx="3" ry="6" width="6" height="12" fill="#f8f8f8">
    <animate attributeName="opacity" values="1;0" keyTimes="0;1" dur="1.4285714285714284s" begin="-0.5952380952380952s" repeatCount="indefinite"></animate>
  </rect>
</g><g transform="rotate(210 50 50)">
  <rect x="47" y="24" rx="3" ry="6" width="6" height="12" fill="#f8f8f8">
    <animate attributeName="opacity" values="1;0" keyTimes="0;1" dur="1.4285714285714284s" begin="-0.47619047619047616s" repeatCount="indefinite"></animate>
  </rect>
</g><g transform="rotate(240 50 50)">
  <rect x="47" y="24" rx="3" ry="6" width="6" height="12" fill="#f8f8f8">
    <animate attributeName="opacity" values="1;0" keyTimes="0;1" dur="1.4285714285714284s" begin="-0.35714285714285715s" repeatCount="indefinite"></animate>
  </rect>
</g><g transform="rotate(270 50 50)">
  <rect x="47" y="24" rx="3" ry="6" width="6" height="12" fill="#f8f8f8">
    <animate attributeName="opacity" values="1;0" keyTimes="0;1" dur="1.4285714285714284s" begin="-0.23809523809523808s" repeatCount="indefinite"></animate>
  </rect>
</g><g transform="rotate(300 50 50)">
  <rect x="47" y="24" rx="3" ry="6" width="6" height="12" fill="#f8f8f8">
    <animate attributeName="opacity" values="1;0" keyTimes="0;1" dur="1.4285714285714284s" begin="-0.11904761904761904s" repeatCount="indefinite"></animate>
  </rect>
</g><g transform="rotate(330 50 50)">
  <rect x="47" y="24" rx="3" ry="6" width="6" height="12" fill="#f8f8f8">
    <animate attributeName="opacity" values="1;0" keyTimes="0;1" dur="1.4285714285714284s" begin="0s" repeatCount="indefinite"></animate>
  </rect>
</g><g></g></g><!-- [ldio] generated by https://loading.io --></svg>